<?xml version="1.0" encoding="utf-8"?>
<!-- Generator: Adobe Illustrator 16.0.3, SVG Export Plug-In . SVG Version: 6.00 Build 0)  -->
<!DOCTYPE svg PUBLIC "-//W3C//DTD SVG 1.1//EN" "http://www.w3.org/Graphics/SVG/1.1/DTD/svg11.dtd">
<svg version="1.1" id="o" xmlns="http://www.w3.org/2000/svg" xmlns:xlink="http://www.w3.org/1999/xlink" x="0px" y="0px"
xml:space="preserve" fill="#350399">
<g>
	<path d="M134.346,75.084c0,9.018-1.428,17.291-4.283,24.822c-2.857,7.531-6.889,14.016-12.098,19.445
		c-5.207,5.434-11.465,9.646-18.773,12.643s-15.387,4.494-24.233,4.494c-8.849,0-16.913-1.498-24.192-4.494
		c-7.28-2.996-13.523-7.209-18.731-12.643c-5.208-5.43-9.24-11.914-12.096-19.445c-2.856-7.531-4.284-15.805-4.284-24.822
		c0-9.016,1.428-17.29,4.284-24.822c2.855-7.531,6.888-14.028,12.096-19.488s11.451-9.702,18.731-12.726
		c7.279-3.024,15.344-4.536,24.192-4.536c8.847,0,16.925,1.512,24.233,4.536c7.309,3.024,13.566,7.266,18.773,12.726
		c5.209,5.46,9.24,11.957,12.098,19.488C132.918,57.794,134.346,66.068,134.346,75.084z M117.629,75.084
		c0-7.392-1.008-14.028-3.023-19.908c-2.016-5.88-4.871-10.85-8.568-14.91c-3.695-4.06-8.176-7.182-13.439-9.366
		s-11.145-3.276-17.64-3.276c-6.44,0-12.293,1.092-17.556,3.276c-5.265,2.184-9.759,5.307-13.482,9.366
		c-3.725,4.061-6.594,9.03-8.61,14.91c-2.016,5.88-3.023,12.516-3.023,19.908c0,7.393,1.008,14.016,3.023,19.865
		c2.017,5.854,4.886,10.809,8.61,14.869c3.724,4.061,8.218,7.168,13.482,9.324c5.263,2.156,11.115,3.234,17.556,3.234
		c6.495,0,12.376-1.078,17.64-3.234s9.744-5.264,13.439-9.324c3.697-4.061,6.553-9.016,8.568-14.869
		C116.621,89.1,117.629,82.477,117.629,75.084z"/>
</g>
</svg>
