<?xml version="1.0" encoding="utf-8"?>
<!-- Generator: Adobe Illustrator 16.0.3, SVG Export Plug-In . SVG Version: 6.00 Build 0)  -->
<!DOCTYPE svg PUBLIC "-//W3C//DTD SVG 1.1//EN" "http://www.w3.org/Graphics/SVG/1.1/DTD/svg11.dtd">
<svg version="1.1" id="x" xmlns="http://www.w3.org/2000/svg" xmlns:xlink="http://www.w3.org/1999/xlink" x="0px" y="0px" xml:space="preserve" fill="#dc143c">
<g>
	<path d="M25.737,136.699c0.059,0,0.088-0.03,0.088-0.088h0.088C25.855,136.669,25.796,136.699,25.737,136.699z M25.737,136.699
		 M124.264,17.783c-0.059,0.059-0.133,0.191-0.221,0.396c-0.088,0.206-0.162,0.455-0.219,0.747
		c-0.059,0.059-0.088,0.147-0.088,0.264v-0.088c0.057-0.058,0.072-0.044,0.043,0.044s-0.074,0.22-0.131,0.396
		c0,0.059-0.031,0.147-0.088,0.264v0.088v-0.088v0.088c-0.059,0.059-0.104,0.118-0.133,0.176c-0.029,0.059-0.043,0.103-0.043,0.132
		c0,0.03,0,0.015,0-0.044c-0.059,0.235-0.146,0.47-0.264,0.703c-0.059,0.176-0.104,0.323-0.133,0.439
		c-0.029,0.118-0.043,0.206-0.043,0.264c-0.059,0.059-0.119,0.176-0.176,0.352c-0.059,0.176-0.119,0.352-0.176,0.527
		c-0.059,0.176-0.119,0.264-0.176,0.264c0.057-0.058,0.088-0.146,0.088-0.264c0.117-0.292,0.205-0.585,0.264-0.879
		c-0.059,0.118-0.088,0.235-0.088,0.352c-0.059,0.176-0.119,0.294-0.176,0.352c-0.119,0.118-0.176,0.22-0.176,0.308s0,0.191,0,0.308
		c0,0.059,0,0.118,0,0.176c-0.176,0.411-0.383,0.806-0.615,1.187c-0.234,0.382-0.439,0.689-0.615,0.923
		c-0.059,0.176-0.146,0.382-0.264,0.615c-0.176,0.294-0.295,0.558-0.352,0.791c0.645-0.82,1.199-1.67,1.67-2.549
		c-0.176,0.294-0.295,0.646-0.352,1.055c0-0.058-0.016-0.102-0.045-0.132c-0.029-0.029-0.074-0.014-0.131,0.044l-0.176,0.615v-0.088
		l-0.264,0.527c0.057-0.117,0.102-0.117,0.131,0c0.029,0.118,0.014,0.294-0.043,0.527l-0.088,0.176c0,0.059,0,0.206,0,0.439
		c-0.059,0.47-0.119,1.055-0.176,1.758c0,0.527-0.016,1.011-0.045,1.45s-0.043,0.718-0.043,0.835
		c-0.059,0.118-0.088,0.235-0.088,0.352c-0.059,0.059-0.088,0.118-0.088,0.176c-0.059-0.058-0.104-0.058-0.133,0
		c-0.029,0.059-0.043,0.147-0.043,0.264c-0.059,0.176-0.104,0.308-0.133,0.396s-0.102,0.103-0.219,0.044
		c-0.059,0.118-0.088,0.25-0.088,0.396c0,0.147,0.029,0.25,0.088,0.308c-0.059,0.235-0.133,0.411-0.221,0.527
		c-0.088,0.118-0.189,0.235-0.307,0.352c-0.119,0.118-0.221,0.264-0.309,0.439s-0.131,0.411-0.131,0.703l-0.352-0.176
		c-0.059,0.118-0.088,0.206-0.088,0.264c0,0.059,0,0.118,0,0.176c0,0.059,0,0.147,0,0.264c0,0.118-0.059,0.264-0.176,0.439
		c-0.119,0.059-0.264,0.176-0.439,0.352s-0.352,0.352-0.527,0.527c-0.527,1.23-1.143,2.403-1.846,3.516
		c-0.176,0.294-0.352,0.558-0.527,0.791c-0.586,0.821-1.086,1.67-1.494,2.549c0.176,0.118,0.307,0.132,0.395,0.044
		s0.162-0.22,0.221-0.396c0.057-0.117,0.117-0.205,0.176-0.264c0.057-0.058,0.145-0.029,0.264,0.088
		c-0.703,1.406-1.406,2.9-2.109,4.482c-0.295,0.646-0.586,1.318-0.879,2.021c-0.527,1.114-1.055,2.228-1.582,3.34
		c-0.586,1.114-1.23,2.168-1.934,3.164c-0.527,0.762-1.201,1.318-2.021,1.67c-0.703,0.352-1.318,0.821-1.846,1.406V59.18
		c-0.119,0.059-0.191,0.264-0.221,0.615s-0.074,0.733-0.131,1.143c0,0.176-0.031,0.352-0.088,0.527
		c-0.059,0.527-0.133,0.997-0.221,1.406c-0.088,0.411-0.25,0.615-0.482,0.615c-0.234,0.235-0.426,0.411-0.572,0.527
		c-0.146,0.118-0.277,0.206-0.395,0.264c-0.176,0.059-0.322,0.162-0.439,0.308c-0.119,0.147-0.234,0.426-0.352,0.835
		c-0.352-0.058-0.646-0.058-0.879,0c-0.234,0.059-0.383,0.235-0.439,0.527c0,0.176-0.031,0.323-0.088,0.439
		c-0.119,0.586-0.264,1.143-0.439,1.67c-0.234,0.47-0.527,0.938-0.879,1.406c-0.586,0.821-1.086,1.729-1.494,2.725
		c0.408-0.058,0.703,0.015,0.879,0.22c0.176,0.206,0.088,0.439-0.264,0.703s-0.998,0.426-1.934,0.483
		c0.408,0.411,0.82,0.821,1.23,1.23c0.352,0.294,0.703,0.615,1.055,0.967c1.055,0.938,1.934,1.816,2.637,2.637
		c0.703,0.821,0.936,1.377,0.703,1.67c0.057,0,0.145,0.03,0.264,0.088c0.057,0,0.117,0.016,0.176,0.044
		c0.057,0.03,0.117,0.015,0.176-0.044c0.469,0.762,0.76,1.553,0.879,2.373c0.117,0.821,0.408,1.612,0.879,2.373
		c0-0.058-0.031-0.117-0.088-0.176c1.111,1.582,2.139,3.223,3.076,4.922c0.703,1.465,1.463,2.755,2.285,3.867
		c-0.059,0.176-0.119,0.382-0.176,0.615c-0.059,0.352-0.088,0.674-0.088,0.967c0,0.294,0.117,0.527,0.352,0.703
		c2.285,2.695,4.395,5.596,6.328,8.701c0.176,0.352,0.381,0.703,0.615,1.055l0.264,0.527l0.088,0.264l0.088,0.088v0.088h0.088v0.088
		c0.117,0.118,0.232,0.264,0.352,0.439c0.176,0.176,0.352,0.264,0.527,0.264c0.117,0,0.232-0.058,0.352-0.176
		c0.057-0.058,0.117-0.146,0.176-0.264c0.408-0.176,0.76-0.557,1.055-1.143c0.057-0.058,0.088-0.146,0.088-0.264
		c0.057,0,0.088-0.029,0.088-0.088l0.088-0.176l0.264-0.439c0.293-0.527,0.557-1.084,0.791-1.67
		c0.527-1.172,0.996-2.402,1.406-3.691h-0.088c0.176-0.409,0.293-0.732,0.352-0.967c0.057-0.058,0.088-0.117,0.088-0.176
		c0-0.117,0.029-0.205,0.088-0.264c0.057-0.233,0.145-0.585,0.264-1.055c0,0.118-0.031,0.206-0.088,0.264
		c0,0.118-0.016,0.234-0.045,0.352c-0.029,0.118-0.043,0.206-0.043,0.264c0,0.059,0,0.103,0,0.132c0,0.03,0,0.015,0-0.044
		c-0.176,1.055-0.264,1.964-0.264,2.725c-0.059,0.527-0.119,1.173-0.176,1.934c0.117,0.41,0.205,1.113,0.264,2.109
		c0,0.586,0,1.173,0,1.758c0.057,0.47,0.088,0.938,0.088,1.406c-0.176,0.47-0.322,0.967-0.439,1.494
		c-0.059,0.118-0.119,0.264-0.176,0.439c0,0.118-0.031,0.234-0.088,0.352v0.088c-0.059,0.118-0.088,0.206-0.088,0.264
		c0,0.059-0.031,0.146-0.088,0.264c-0.119,0.294-0.207,0.615-0.264,0.967c-0.059,0.176-0.119,0.352-0.176,0.527
		c-0.059,0.059-0.119,0.146-0.176,0.264c0,0.059,0,0.118,0,0.176c-0.176,0.294-0.322,0.586-0.439,0.879v0.088
		c-0.176,0.234-0.352,0.47-0.527,0.703c0,0.059-0.031,0.118-0.088,0.176c0,0.059-0.031,0.118-0.088,0.176
		c-0.176,0.234-0.352,0.439-0.527,0.615l0.176,0.176l-0.527,0.439l-0.527,0.439l-0.527,0.439c-0.119,0.059-0.264,0.118-0.439,0.176
		c-0.059,0.059-0.119,0.088-0.176,0.088c-0.119,0.118-0.264,0.176-0.439,0.176c-0.059,0.059-0.119,0.088-0.176,0.088
		c0,0.059-0.031,0.088-0.088,0.088c-0.059,0-0.119,0.03-0.176,0.088l-0.176,0.088h-0.088h-0.088c-0.059,0-0.146,0-0.264,0h-0.088
		c-0.059,0-0.088,0.03-0.088,0.088c-0.119,0-0.207,0-0.264,0c-0.119,0-0.234-0.029-0.352-0.088c-0.119,0-0.234,0-0.352,0
		c-0.119-0.058-0.264-0.088-0.439-0.088c-0.059-0.058-0.146-0.088-0.264-0.088c-0.234-0.058-0.471-0.146-0.703-0.264
		c-0.176-0.117-0.383-0.205-0.615-0.264c-0.119-0.117-0.264-0.205-0.439-0.264c-0.059,0-0.119-0.029-0.176-0.088
		c-0.119-0.058-0.207-0.117-0.264-0.176c-0.119-0.058-0.264-0.117-0.439-0.176l-0.352-0.176c-0.059,0-0.119-0.029-0.176-0.088
		c0-0.058-0.031-0.088-0.088-0.088c-0.176-0.117-0.352-0.233-0.527-0.352c-0.234-0.176-0.471-0.352-0.703-0.527
		c-0.176-0.117-0.352-0.233-0.527-0.352c-0.059-0.058-0.088-0.117-0.088-0.176h-0.088c-0.119-0.058-0.207-0.117-0.264-0.176
		l-0.176-0.176h-0.088v-0.088c-0.352-0.233-0.674-0.469-0.967-0.703c-0.586-0.527-1.174-1.055-1.758-1.582
		c-1.113-1.055-2.141-2.109-3.076-3.164c-0.938-0.409-1.67-0.908-2.197-1.494c-0.059-0.058-0.119-0.117-0.176-0.176
		c-0.527-0.585-1.23-1.055-2.109-1.406c0.176,0.118,0.307,0.162,0.395,0.132c0.088-0.029,0.133-0.088,0.133-0.176
		s-0.031-0.189-0.088-0.308c-0.059-0.176-0.088-0.365-0.088-0.571c0-0.205,0.117-0.337,0.352-0.396l-1.846-1.494
		c0.057-0.117,0.088-0.264,0.088-0.439s-0.031-0.321-0.088-0.439c-0.527-0.703-1.143-1.464-1.846-2.285
		c-1.113-1.288-2.08-2.606-2.9-3.955l-0.264,0.439c-0.176-0.293-0.279-0.601-0.309-0.923c-0.029-0.321,0.133-0.541,0.484-0.659
		c-0.41-0.176-0.791-0.439-1.143-0.791c-0.412-0.352-0.836-0.673-1.275-0.967c-0.439-0.293-0.953-0.439-1.537-0.439l-0.264-0.967
		c-0.061,0.352-0.133,0.63-0.221,0.835c-0.088,0.206-0.191,0.396-0.307,0.571c-0.119,0.176-0.207,0.322-0.264,0.439
		c-0.822-0.645-1.701-1.26-2.637-1.846c-0.527-0.352-1.086-0.732-1.67-1.143c-0.061,0.118-0.119,0.234-0.176,0.352
		c-0.295,0.646-0.615,1.318-0.967,2.021c-0.703,1.465-1.379,2.711-2.021,3.735c-0.646,1.025-1.145,1.48-1.496,1.362
		c0.059,0.059,0.059,0.118,0,0.176c0,0.118,0,0.206,0,0.264c0,0.059,0.029,0.118,0.088,0.176c-0.645,0.762-1.377,1.349-2.197,1.758
		c-0.821,0.47-1.582,1.055-2.285,1.758c0.058,0,0.117-0.029,0.176-0.088c-0.586,0.821-1.202,1.582-1.846,2.285
		c-0.646,0.762-1.318,1.494-2.021,2.197c-0.352,0.294-0.674,0.615-0.967,0.967c-0.352,0.352-0.703,0.703-1.055,1.055
		c-0.703,0.703-1.318,1.377-1.846,2.021c-0.176,0.059-0.382,0.088-0.615,0.088c-0.352,0.059-0.689,0.132-1.011,0.22
		c-0.323,0.088-0.571,0.278-0.747,0.571c-2.228,3.34-5.069,6.563-8.525,9.668c-0.762,0.703-1.582,1.349-2.461,1.934
		c-0.586,0.47-1.2,0.909-1.846,1.318c-0.233,0.176-0.468,0.352-0.703,0.527c-0.409,0.294-0.791,0.586-1.143,0.879
		c-0.527,0.294-0.996,0.615-1.406,0.967c-0.117,0.059-0.205,0.118-0.264,0.176c-0.761,0.527-1.494,1.085-2.197,1.67
		c-5.449,2.988-10.986,5.479-16.611,7.471h0.088c-0.527,0.176-0.908,0.293-1.143,0.352c-0.058,0.058-0.117,0.088-0.176,0.088
		c-0.058,0-0.117,0.029-0.176,0.088c-0.233,0.058-0.644,0.205-1.23,0.439H26c0.059-0.059,0.147-0.118,0.264-0.176
		c0.118,0,0.22-0.03,0.308-0.088c0.088-0.059,0.176-0.103,0.264-0.132c0.088-0.03,0.132-0.059,0.132-0.088
		c0-0.03-0.029-0.015-0.088,0.044c0.703-0.352,1.305-0.689,1.802-1.011c0.499-0.322,1.011-0.659,1.538-1.011
		c0.294-0.234,0.674-0.498,1.143-0.791c0.176-0.409,0.615-0.967,1.318-1.67c0.059-0.058,0.118-0.088,0.176-0.088
		c0.703-0.82,1.377-1.67,2.021-2.549c0.997-0.761,1.788-1.611,2.373-2.549c0.352-0.469,0.646-0.937,0.879-1.406
		c0.294-0.469,0.586-0.967,0.879-1.494h-0.176c1.29-1.934,2.579-3.896,3.867-5.889c2.168-3.397,4.366-6.649,6.592-9.756
		c0.176-0.996,0.499-1.846,0.967-2.549c0.527-0.761,0.879-1.64,1.055-2.637c-0.058,0.176-0.073,0.308-0.044,0.396
		c0.03,0.088,0.088,0.118,0.176,0.088c0.088-0.029,0.191-0.102,0.308-0.22c0.176-0.117,0.365-0.189,0.571-0.22
		c0.205-0.029,0.365,0.015,0.483,0.132l1.055-2.197c0.117,0,0.264-0.014,0.439-0.044c0.176-0.029,0.321-0.102,0.439-0.22
		c0.585-0.761,1.2-1.64,1.846-2.637c0.996-1.523,2.109-2.93,3.34-4.219l-0.615-0.088c0.292-0.293,0.585-0.513,0.879-0.659
		c0.292-0.146,0.556-0.044,0.791,0.308c0.058-0.409,0.233-0.879,0.527-1.406c0.233-0.527,0.424-1.055,0.571-1.582
		c0.146-0.527,0.161-1.084,0.044-1.67l0.879-0.615c-0.352,0.059-0.646,0.088-0.879,0.088c-0.235,0-0.47-0.029-0.703-0.088
		c-0.118-0.058-0.294-0.088-0.527-0.088c0.761-1.815,1.435-3.809,2.021-5.977c0.058-0.293,0.117-0.557,0.176-0.791
		c-0.235,0.118-0.426,0.22-0.571,0.308c-0.147,0.088-0.294,0.176-0.439,0.264c-0.147,0.088-0.338,0.22-0.571,0.396
		c0.409-0.352,0.849-0.703,1.318-1.055c0.352-0.293,0.791-0.645,1.318-1.055c0.527-0.409,1.083-0.879,1.67-1.406
		c0.409-0.352,0.791-0.732,1.143-1.143c0.233-0.176,0.439-0.352,0.615-0.527c0.352-0.293,0.703-0.615,1.055-0.967
		c0.292-0.233,0.585-0.497,0.879-0.791c0.176-0.176,0.352-0.352,0.527-0.527c0.468-0.409,0.908-0.82,1.318-1.23
		c0.352-0.292,0.644-0.585,0.879-0.879c0.352-0.292,0.644-0.556,0.879-0.791c0.352-0.352,0.703-0.673,1.055-0.967
		c-0.586-1.991-1.261-3.867-2.021-5.625c-0.586-1.347-1.318-2.637-2.197-3.867c-0.821-1.171-1.788-2.226-2.9-3.164
		c-0.703-0.585-1.494-1.143-2.373-1.67c-0.176,0.059-0.308-0.132-0.396-0.571s-0.103-1.011-0.044-1.714
		c0.058-0.644,0.249-1.332,0.571-2.065c0.321-0.732,0.805-1.332,1.45-1.802c-3.047-0.233-4.776-1.523-5.186-3.867
		c-0.294-1.112-0.439-2.314-0.439-3.604c0-1.288,0.058-2.549,0.176-3.779v-0.088v0.088c0.233,0.938,0.497,1.876,0.791,2.813
		c0.292,0.997,0.615,1.934,0.967,2.813l-0.176-0.615c0.292-0.117,0.527-0.249,0.703-0.396c0.176-0.146,0.205-0.396,0.088-0.747
		c-0.294,0.118-0.542,0.074-0.747-0.132c-0.206-0.205-0.367-0.453-0.483-0.747c-0.059-0.058-0.118-0.117-0.176-0.176
		c-0.059-0.176-0.074-0.352-0.044-0.527c0.029-0.176,0.102-0.321,0.22-0.439c0.058-0.176,0.102-0.336,0.132-0.483
		c0.029-0.146-0.044-0.308-0.22-0.483c0.058-0.058,0.146-0.088,0.264-0.088c0.058,0,0.132-0.029,0.22-0.088
		c0.088-0.058,0.161-0.117,0.22-0.176c0-0.176,0.014-0.292,0.044-0.352c0.029-0.058,0.044-0.117,0.044-0.176
		c0-0.058,0-0.117,0-0.176c0-0.117,0-0.321,0-0.615c-0.059-0.176-0.147-0.277-0.264-0.308c-0.118-0.029-0.235-0.029-0.352,0
		c-0.118,0.03-0.206,0.044-0.264,0.044c-0.176-0.117-0.294-0.264-0.352-0.439c-0.059-0.176-0.059-0.352,0-0.527
		c0.352,0,0.571-0.073,0.659-0.22c0.088-0.146,0.132-0.336,0.132-0.571c0.058-0.233,0.132-0.439,0.22-0.615s0.277-0.233,0.571-0.176
		l-0.176-0.791c-0.118,0.294-0.235,0.47-0.352,0.527c-0.118,0.059-0.294,0.059-0.527,0c-0.118-0.644-0.206-1.288-0.264-1.934
		c0-0.233-0.03-0.468-0.088-0.703c-0.059-0.058-0.118-0.088-0.176-0.088h-0.088c-0.059,0-0.118-0.029-0.176-0.088
		c0-0.233-0.074-0.453-0.22-0.659c-0.147-0.205-0.308-0.396-0.483-0.571c-0.059-0.058-0.088-0.117-0.088-0.176
		c-0.235-0.176-0.396-0.365-0.483-0.571c-0.088-0.205-0.074-0.365,0.044-0.483h0.088c0.058,0,0.102-0.029,0.132-0.088
		c0.029-0.058,0.044-0.117,0.044-0.176l-0.088,0.088c0-0.117,0-0.205,0-0.264l0.088-0.088c-0.47-0.352-0.733-0.761-0.791-1.23
		c0.117-0.058,0.205-0.058,0.264,0c0.058,0.059,0.117,0.118,0.176,0.176c0.058,0,0.117,0.03,0.176,0.088l-0.088,0.088
		c0.176,0.118,0.352,0.206,0.527,0.264c0.176,0.059,0.352,0.088,0.527,0.088c0.058,0.059,0.146,0.088,0.264,0.088
		c-0.411-0.233-0.703-0.585-0.879-1.055v-0.088c-0.235-0.409-0.499-0.761-0.791-1.055l0.088-0.439h-0.088
		c0-0.117,0.029-0.176,0.088-0.176c0.058,0,0.117,0,0.176,0c0.058-0.058,0.102-0.088,0.132-0.088c0.029,0,0.044-0.014,0.044-0.044
		c0-0.029,0-0.102,0-0.22c-0.118,0.118-0.22,0.132-0.308,0.044s-0.162-0.22-0.22-0.396c0-0.058-0.103-0.233-0.308-0.527
		c-0.206-0.292-0.455-0.615-0.747-0.967c-0.118-0.117-0.206-0.233-0.264-0.352c-0.411-0.468-0.747-0.879-1.011-1.23
		s-0.396-0.585-0.396-0.703c-0.059-0.058-0.059-0.058,0,0c0.058,0.059,0.146,0.176,0.264,0.352c0.176,0.235,0.38,0.47,0.615,0.703
		c0.117,0.176,0.233,0.323,0.352,0.439c0.176,0.235,0.352,0.47,0.527,0.703v-0.088c0-0.117-0.059-0.233-0.176-0.352
		c0.058,0,0.044-0.044-0.044-0.132s-0.191-0.189-0.308-0.308c-0.176-0.176-0.352-0.38-0.527-0.615
		c-0.294-0.233-0.527-0.468-0.703-0.703c-0.176-0.233-0.264-0.38-0.264-0.439c0-0.233-0.088-0.439-0.264-0.615v0.088h-0.088
		l-0.264-0.527c0.058,0.059,0.117,0.088,0.176,0.088h0.088h0.088c-0.059-0.233-0.162-0.483-0.308-0.747
		c-0.147-0.264-0.279-0.483-0.396-0.659c-0.059,0-0.088-0.029-0.088-0.088v0.088c-0.118-0.176-0.22-0.365-0.308-0.571
		c-0.088-0.205-0.162-0.365-0.22-0.483c0.058,0,0.117,0.044,0.176,0.132c0.058,0.088,0.117,0.162,0.176,0.22
		c0.058,0.118,0.117,0.206,0.176,0.264c0.058,0.059,0.102,0.088,0.132,0.088c0.029,0,0.044-0.029,0.044-0.088
		c0.058,0.059,0.102,0.118,0.132,0.176c0.029,0.059,0.014,0.088-0.044,0.088H55.62h-0.088c0.058,0.118,0.088,0.206,0.088,0.264
		c0.117,0.059,0.189,0.074,0.22,0.044c0.029-0.029,0.058-0.088,0.088-0.176c0.029-0.088,0.044-0.189,0.044-0.308v-0.088
		c-0.118-0.176-0.264-0.396-0.439-0.659s-0.352-0.512-0.527-0.747h-0.088l-0.088-0.088c-0.118-0.176-0.206-0.321-0.264-0.439
		c-0.059-0.117-0.147-0.233-0.264-0.352c0-0.117-0.03-0.22-0.088-0.308c-0.059-0.088-0.118-0.161-0.176-0.22V15.41H53.95
		c-0.059,0-0.103-0.014-0.132-0.044c-0.03-0.029-0.044-0.073-0.044-0.132c-0.294-0.409-0.439-0.673-0.439-0.791
		c-0.176-0.117-0.323-0.264-0.439-0.439c-0.118-0.117-0.235-0.264-0.352-0.439l0.176,0.264c-0.176-0.233-0.264-0.38-0.264-0.439
		h-0.088c0.058,0,0.102,0.03,0.132,0.088c0.029,0.059,0.073,0.088,0.132,0.088c0,0.059,0.058,0.118,0.176,0.176
		c-0.118-0.117-0.235-0.233-0.352-0.352h-0.088v-0.088v0.088c0.058,0,0.176,0.074,0.352,0.22c0.176,0.147,0.352,0.279,0.527,0.396
		c0.117,0.059,0.205,0.118,0.264,0.176l-0.088-0.088c0-0.058,0.029-0.058,0.088,0c0.058,0.059,0.146,0.147,0.264,0.264
		c0.058,0.059,0.146,0.118,0.264,0.176c0.058,0.059,0.117,0.103,0.176,0.132c0.058,0.03,0.088,0.059,0.088,0.088
		c0,0.03-0.03,0.015-0.088-0.044c0.233,0.176,0.468,0.352,0.703,0.527c0.176,0.176,0.321,0.294,0.439,0.352
		c0.058,0.059,0.146,0.147,0.264,0.264c0.117,0.118,0.249,0.235,0.396,0.352c0.146,0.118,0.189,0.206,0.132,0.264
		c0-0.058-0.03-0.088-0.088-0.088c-0.235-0.233-0.499-0.439-0.791-0.615c0.117,0.118,0.205,0.206,0.264,0.264
		c0.176,0.059,0.264,0.147,0.264,0.264c0.058,0.118,0.132,0.191,0.22,0.22c0.088,0.03,0.161,0.044,0.22,0.044
		c0.058,0.059,0.117,0.088,0.176,0.088c0.292,0.294,0.556,0.615,0.791,0.967c0.233,0.352,0.409,0.615,0.527,0.791
		c0.117,0.176,0.264,0.352,0.439,0.527c0.176,0.235,0.352,0.439,0.527,0.615c-0.411-0.879-0.909-1.67-1.494-2.373
		c0.176,0.235,0.439,0.439,0.791,0.615c-0.059,0-0.103,0-0.132,0c-0.03,0-0.044,0.015-0.044,0.044c0,0.03,0,0.074,0,0.132
		l0.439,0.352h-0.088l0.439,0.352c-0.118-0.058-0.118-0.088,0-0.088c0.117,0,0.264,0.088,0.439,0.264l0.088,0.088
		c0.058,0.059,0.205,0.147,0.439,0.264c0.352,0.176,0.82,0.411,1.406,0.703c0.468,0.235,0.879,0.439,1.23,0.615
		s0.585,0.294,0.703,0.352c0.117,0.118,0.205,0.206,0.264,0.264l0.088,0.088h0.088c-0.118,0.059-0.147,0.118-0.088,0.176
		c0.058,0.059,0.117,0.118,0.176,0.176c0.117,0.059,0.205,0.118,0.264,0.176c0.058,0.059,0.058,0.118,0,0.176
		c0.058,0.118,0.146,0.206,0.264,0.264c0.117,0.059,0.233,0.088,0.352,0.088c0.176,0.118,0.292,0.235,0.352,0.352
		c0.058,0.118,0.117,0.235,0.176,0.352c0.058,0.176,0.132,0.338,0.22,0.483c0.088,0.147,0.249,0.279,0.483,0.396L65.2,24.111
		c0.117,0.118,0.205,0.176,0.264,0.176c0.058,0,0.117,0.03,0.176,0.088c0.058,0,0.132,0.015,0.22,0.044
		c0.088,0.03,0.161,0.132,0.22,0.308c0,0.118,0.044,0.294,0.132,0.527c0.088,0.235,0.161,0.439,0.22,0.615
		c0.82,0.938,1.523,1.934,2.109,2.988c0.117,0.294,0.264,0.558,0.439,0.791c0.409,0.821,0.879,1.582,1.406,2.285
		c0.117-0.117,0.189-0.205,0.22-0.264c0.029-0.058,0.029-0.132,0-0.22c-0.03-0.088-0.103-0.161-0.22-0.22
		c-0.059-0.058-0.103-0.132-0.132-0.22c-0.03-0.088,0.044-0.161,0.22-0.22c0.879,1.173,1.875,2.403,2.988,3.691
		c0.352,0.47,0.703,0.938,1.055,1.406c0.761,0.879,1.464,1.758,2.109,2.637c0.645,0.938,1.23,1.876,1.758,2.813
		c0.41,0.703,0.557,1.437,0.439,2.197c-0.059,0.762,0.059,1.494,0.352,2.197l-0.264-0.088c0,0.059,0.133,0.176,0.396,0.352
		s0.572,0.352,0.924,0.527s0.688,0.367,1.01,0.571c0.322,0.206,0.572,0.411,0.748,0.615c0.176,0.206,0.232,0.367,0.176,0.483
		c0.057,0.294,0.102,0.527,0.131,0.703s0.045,0.323,0.045,0.439c0,0.176,0.027,0.338,0.088,0.483
		c0.057,0.147,0.232,0.338,0.527,0.571c-0.236,0.294-0.383,0.542-0.439,0.747c-0.061,0.206,0.027,0.396,0.264,0.571
		c0.527,0.411,1.055,0.821,1.582,1.23c0.232,0.352,0.496,0.733,0.791,1.143c0.408,0.821,0.936,1.582,1.582,2.285
		c0.176-0.468,0.408-0.703,0.703-0.703c0.115-0.409,0.232-0.849,0.352-1.318c0.291-0.937,0.467-1.934,0.527-2.988
		c-0.119-0.176,0.014-0.424,0.395-0.747c0.381-0.321,0.924-0.629,1.627-0.923c0.176-0.058,0.352-0.117,0.527-0.176
		c0.176-0.058,0.352-0.117,0.527-0.176c0.408-0.058,0.791-0.088,1.143-0.088c0.82-0.058,1.582,0.059,2.285,0.352
		c-1.113-2.87-0.646-5.126,1.406-6.768c0.879-0.82,1.934-1.582,3.164-2.285c1.23-0.644,2.49-1.259,3.779-1.846
		c-0.879,0.703-1.701,1.465-2.461,2.285c-0.762,0.762-1.494,1.553-2.197,2.373l0.527-0.527c0.232,0.235,0.453,0.382,0.658,0.439
		c0.205,0.059,0.453-0.058,0.748-0.352c-0.234-0.176-0.295-0.409-0.176-0.703c0.117-0.292,0.264-0.585,0.439-0.879
		c0.057-0.058,0.117-0.146,0.176-0.264c0.117-0.117,0.248-0.205,0.395-0.264c0.146-0.058,0.309-0.088,0.484-0.088
		c0.232,0,0.424-0.029,0.57-0.088c0.146-0.058,0.25-0.233,0.309-0.527c0.117,0.059,0.205,0.147,0.264,0.264
		c0,0.059,0.043,0.103,0.131,0.132c0.088,0.03,0.189,0.074,0.309,0.132c0.117-0.058,0.219-0.102,0.307-0.132
		c0.088-0.029,0.162-0.058,0.221-0.088c0.057-0.029,0.117-0.073,0.176-0.132c0.057-0.058,0.232-0.146,0.527-0.264
		c0.117-0.176,0.176-0.321,0.176-0.439c0-0.117-0.045-0.22-0.133-0.308s-0.162-0.161-0.219-0.22c0.057-0.233,0.16-0.424,0.307-0.571
		c0.146-0.146,0.309-0.22,0.484-0.22c0.117,0.294,0.277,0.439,0.482,0.439s0.426-0.058,0.66-0.176
		c0.232-0.058,0.439-0.088,0.615-0.088s0.32,0.118,0.439,0.352l0.615-0.527c-0.295,0.059-0.498,0.044-0.615-0.044
		c-0.119-0.088-0.207-0.249-0.264-0.483c0.584-0.468,1.172-0.908,1.758-1.318c0.176-0.117,0.381-0.264,0.615-0.439
		c0-0.058,0-0.102,0-0.132c0-0.029,0-0.073,0-0.132c-0.059-0.058-0.088-0.102-0.088-0.132c0-0.029,0.029-0.044,0.088-0.044
		c0.176-0.176,0.336-0.38,0.482-0.615c0.146-0.233,0.25-0.497,0.309-0.791c0.057-0.058,0.088-0.117,0.088-0.176
		c0.117-0.292,0.248-0.527,0.395-0.703s0.309-0.264,0.484-0.264l0.088,0.088c0,0.059,0.029,0.088,0.088,0.088
		c0.057,0,0.117,0,0.176,0c0-0.058-0.031-0.088-0.088-0.088c0.057,0,0.145-0.029,0.264-0.088l0.088-0.088
		c0.117-0.527,0.408-0.967,0.879-1.318c0.057,0.059,0.072,0.132,0.043,0.22s-0.043,0.191-0.043,0.308c0,0.059,0,0.118,0,0.176
		h-0.176c-0.059,0.235-0.074,0.455-0.045,0.659c0.029,0.206,0.074,0.367,0.133,0.483c0,0.118,0.029,0.206,0.088,0.264
		c0.057-0.468,0.264-0.908,0.615-1.318v-0.088c0.352-0.409,0.584-0.82,0.703-1.23l0.439-0.176c0.057,0,0.088-0.014,0.088-0.044
		c0-0.029-0.031-0.044-0.088-0.044c0.057-0.058,0.117-0.073,0.176-0.044c0.057,0.03,0.088,0.074,0.088,0.132
		c0.057,0.059,0.102,0.103,0.131,0.132c0.029,0.03,0.059,0.044,0.088,0.044s0.074-0.029,0.133-0.088
		c-0.119-0.058-0.146-0.161-0.088-0.308c0.057-0.146,0.145-0.277,0.264-0.396c0.057,0,0.176-0.161,0.352-0.483
		c0.176-0.321,0.352-0.717,0.527-1.187c0.117-0.176,0.232-0.38,0.352-0.615c0.232-0.527,0.482-1.011,0.746-1.45
		s0.426-0.717,0.484-0.835c0.057-0.058,0.072-0.044,0.043,0.044s-0.102,0.22-0.219,0.396c-0.119,0.294-0.295,0.646-0.527,1.055
		c-0.059,0.176-0.146,0.352-0.264,0.527c-0.119,0.294-0.234,0.558-0.352,0.791c0.117-0.117,0.232-0.233,0.352-0.352
		c0.057-0.176,0.117-0.352,0.176-0.527c0.117-0.233,0.232-0.527,0.352-0.879c0.176-0.352,0.336-0.673,0.482-0.967
		c0.146-0.292,0.25-0.439,0.309-0.439c0.176-0.117,0.32-0.321,0.439-0.615h-0.088v-0.088l0.439-0.439
		c-0.059,0.059-0.088,0.118-0.088,0.176l0.088,0.088c0.176-0.117,0.352-0.292,0.527-0.527c0.176-0.233,0.352-0.468,0.527-0.703
		c0-0.058,0.029-0.117,0.088-0.176l-0.088,0.088c0.117-0.233,0.248-0.439,0.395-0.615s0.309-0.321,0.484-0.439
		c0,0.059-0.031,0.132-0.088,0.22c-0.059,0.088-0.119,0.191-0.176,0.308c-0.059,0.118-0.119,0.206-0.176,0.264
		c-0.059,0.059-0.088,0.103-0.088,0.132c0,0.03,0.057,0.044,0.176,0.044c-0.059,0.059-0.104,0.118-0.133,0.176
		c-0.029,0.059-0.059,0.088-0.088,0.088s-0.043-0.029-0.043-0.088v-0.088c-0.059,0-0.104,0.015-0.133,0.044
		c-0.029,0.03-0.074,0.074-0.131,0.132c-0.059,0.176-0.059,0.264,0,0.264c0.057,0,0.131-0.014,0.219-0.044
		c0.088-0.029,0.189-0.073,0.309-0.132h0.088c0.117-0.233,0.264-0.497,0.439-0.791c0.176-0.292,0.352-0.556,0.527-0.791v-0.088
		V21.65l0.088-0.088c0.057-0.176,0.145-0.292,0.264-0.352c0.117-0.117,0.205-0.292,0.264-0.527c0,0.059,0.029,0.059,0.088,0
		c0.057-0.058,0.117-0.117,0.176-0.176c0.057-0.058,0.117-0.146,0.176-0.264l0.088-0.088h-0.088c0-0.058,0.014-0.088,0.043-0.088
		s0.059-0.029,0.088-0.088c0.029-0.058,0.045-0.117,0.045-0.176c0.352-0.409,0.557-0.644,0.615-0.703
		c0-0.058,0.029-0.117,0.088-0.176c0.057-0.117,0.117-0.233,0.176-0.352c0.057-0.058,0.117-0.117,0.176-0.176
		c0.057-0.058,0.088-0.117,0.088-0.176L124,18.135c0.057-0.058,0.072-0.088,0.043-0.088s-0.074,0.059-0.131,0.176
		c0.117-0.176,0.205-0.292,0.264-0.352v-0.088c0,0.059-0.016,0.103-0.045,0.132c-0.029,0.03-0.043,0.074-0.043,0.132
		c-0.059,0.059-0.104,0.118-0.133,0.176c-0.029,0.059-0.043,0.103-0.043,0.132c0,0.03,0.029,0,0.088-0.088
		c0.057-0.088,0.117-0.22,0.176-0.396v-0.088H124.264v-0.088V17.783z M53.862,14.531c0.176,0.176,0.321,0.294,0.439,0.352
		l-0.176-0.176h-0.088c0.058,0,0.073-0.014,0.044-0.044c-0.03-0.029-0.074-0.073-0.132-0.132c-0.059-0.058-0.147-0.117-0.264-0.176
		c-0.059-0.058-0.118-0.117-0.176-0.176c-0.176-0.117-0.338-0.233-0.483-0.352c-0.147-0.117-0.25-0.176-0.308-0.176
		c-0.059-0.058-0.059-0.088,0-0.088h-0.088c-0.118-0.058-0.176-0.117-0.176-0.176c0,0.059,0.029,0.088,0.088,0.088
		c0.058,0.059,0.117,0.118,0.176,0.176h0.088l0.088,0.088c0.117,0.118,0.233,0.235,0.352,0.352v-0.088h-0.088
		c0.176,0.059,0.336,0.162,0.483,0.308c0.146,0.147,0.249,0.25,0.308,0.308L53.862,14.531z M52.983,13.916
		C53.041,13.975,53.041,13.975,52.983,13.916l-0.088-0.088L52.983,13.916z M54.038,14.619H53.95l0.088,0.088V14.619z M54.038,14.531
		h0.088H54.038z M54.125,14.531v0.088V14.531z M54.125,14.619h0.088H54.125z M54.433,14.751c-0.03-0.029-0.103-0.073-0.22-0.132
		l0.176,0.088C54.447,14.766,54.462,14.781,54.433,14.751z M122.77,96.973c0-0.058,0-0.117,0-0.176V96.973z M124,18.398
		c0-0.117,0.029-0.205,0.088-0.264c0-0.058,0-0.058,0,0v-0.088l0.088-0.176c0,0.059-0.031,0.118-0.088,0.176
		c0,0.059-0.031,0.147-0.088,0.264V18.398c-0.059,0.059-0.119,0.118-0.176,0.176c0,0.118-0.031,0.206-0.088,0.264
		c0,0.059,0,0.059,0,0h0.088V18.75v0.088c-0.059,0.176-0.133,0.367-0.221,0.571c-0.088,0.206-0.162,0.338-0.219,0.396l0.088-0.088
		c-0.119,0.176-0.176,0.352-0.176,0.527l0.088-0.176V19.98c0.057-0.117,0.102-0.205,0.131-0.264
		c0.029-0.058,0.045-0.146,0.045-0.264c0.057-0.117,0.117-0.205,0.176-0.264v-0.088c0.057-0.117,0.088-0.233,0.088-0.352
		C123.881,18.574,123.941,18.458,124,18.398z M123.385,19.805c0,0.059,0,0.118,0,0.176v-0.088V19.805z M123.473,20.068
		c0-0.058,0.029-0.117,0.088-0.176C123.502,19.952,123.473,20.011,123.473,20.068z M123.473,20.244c0,0.118,0,0.147,0,0.088
		c0-0.058,0-0.146,0-0.264C123.473,20.244,123.473,20.303,123.473,20.244z M123.824,18.574
		C123.824,18.633,123.824,18.633,123.824,18.574v-0.088c0.057,0,0.088-0.014,0.088-0.044
		C123.912,18.414,123.881,18.458,123.824,18.574z"/>
</g>
</svg>
